<svg width="13" height="13" viewBox="0 0 13 13" fill="none" xmlns="http://www.w3.org/2000/svg">
<path d="M11.2447 4.40728C11.2395 4.01511 11.1661 3.62684 11.0277 3.25983C10.9078 2.95027 10.7246 2.66913 10.4898 2.43437C10.2551 2.19962 9.97394 2.01642 9.66437 1.89647C9.30208 1.76047 8.91935 1.68694 8.53246 1.67899C8.03434 1.65673 7.87641 1.65051 6.61194 1.65051C5.34748 1.65051 5.18541 1.65051 4.69091 1.67899C4.30419 1.68699 3.92164 1.76053 3.55952 1.89647C3.2499 2.01633 2.96872 2.19951 2.73395 2.43427C2.49919 2.66903 2.31601 2.95022 2.19615 3.25983C2.05988 3.62184 1.98651 4.00449 1.97919 4.39122C1.95693 4.88987 1.9502 5.04779 1.9502 6.31226C1.9502 7.57673 1.9502 7.73828 1.97919 8.2333C1.98696 8.62061 2.05997 9.00275 2.19615 9.36572C2.31622 9.67524 2.49953 9.95631 2.73437 10.191C2.96921 10.4256 3.25042 10.6087 3.56003 10.7286C3.92116 10.87 4.30379 10.9488 4.69143 10.9616C5.19007 10.9838 5.34799 10.9906 6.61246 10.9906C7.87693 10.9906 8.039 10.9906 8.5335 10.9616C8.92037 10.954 9.30313 10.8806 9.6654 10.7446C9.97489 10.6245 10.256 10.4413 10.4907 10.2065C10.7254 9.97181 10.9087 9.69074 11.0288 9.38126C11.165 9.0188 11.238 8.63666 11.2457 8.24883C11.268 7.75071 11.2747 7.59278 11.2747 6.32779C11.2737 5.06333 11.2737 4.90281 11.2447 4.40728ZM6.60884 8.70346C5.28638 8.70346 4.21505 7.63213 4.21505 6.30967C4.21505 4.98721 5.28638 3.91588 6.60884 3.91588C7.24371 3.91588 7.85258 4.16809 8.3015 4.61701C8.75042 5.06593 9.00262 5.6748 9.00262 6.30967C9.00262 6.94454 8.75042 7.55341 8.3015 8.00233C7.85258 8.45126 7.24371 8.70346 6.60884 8.70346ZM9.0979 4.38553C8.78877 4.38553 8.53971 4.13595 8.53971 3.82734C8.53971 3.75407 8.55414 3.68152 8.58218 3.61383C8.61022 3.54614 8.65132 3.48463 8.70312 3.43283C8.75493 3.38102 8.81644 3.33992 8.88413 3.31188C8.95182 3.28384 9.02437 3.26941 9.09764 3.26941C9.17091 3.26941 9.24346 3.28384 9.31115 3.31188C9.37884 3.33992 9.44035 3.38102 9.49215 3.43283C9.54396 3.48463 9.58506 3.54614 9.6131 3.61383C9.64114 3.68152 9.65557 3.75407 9.65557 3.82734C9.65557 4.13595 9.40599 4.38553 9.0979 4.38553Z" fill="white"/>
<path d="M6.60866 7.86436C7.46744 7.86436 8.16361 7.16818 8.16361 6.30941C8.16361 5.45063 7.46744 4.75446 6.60866 4.75446C5.74989 4.75446 5.05371 5.45063 5.05371 6.30941C5.05371 7.16818 5.74989 7.86436 6.60866 7.86436Z" fill="white"/>
</svg>
